HIERARCHY
ROOT joint_Root
{
	OFFSET 0.0 0.0 0.0
	CHANNELS 6 Xposition Yposition Zposition Zrotation Xrotation Yrotation 
	JOINT Hips
	{
		OFFSET -0.726466 93.3139 -2.00062
		CHANNELS 6 Xposition Yposition Zposition Zrotation Xrotation Yrotation 
		JOINT Spine
		{
			OFFSET 15.7357 0.0 0.0
			CHANNELS 6 Xposition Yposition Zposition Zrotation Xrotation Yrotation 
			JOINT Chest
			{
				OFFSET 8.98455 -0.406207 0.0
				CHANNELS 6 Xposition Yposition Zposition Zrotation Xrotation Yrotation 
				JOINT Neck
				{
					OFFSET 16.3773 0.0 0.0
					CHANNELS 6 Xposition Yposition Zposition Zrotation Xrotation Yrotation 
					JOINT Head
					{
						OFFSET 6.45672 0.0 0.0
						CHANNELS 6 Xposition Yposition Zposition Zrotation Xrotation Yrotation 
						End Site
						{
							OFFSET 0.0 0.0 0.0
						}
					}
				}
				JOINT Shoulder_L
				{
					OFFSET 12.9942 -0.242716 4.98039
					CHANNELS 6 Xposition Yposition Zposition Zrotation Xrotation Yrotation 
					JOINT UpperArm_L
					{
						OFFSET 5.34809 0.0 0.0
						CHANNELS 6 Xposition Yposition Zposition Zrotation Xrotation Yrotation 
						JOINT LowerArm_L
						{
							OFFSET 24.3286 1.87007e-05 0.0
							CHANNELS 6 Xposition Yposition Zposition Zrotation Xrotation Yrotation 
							JOINT Hand_L
							{
								OFFSET 22.2916 0.0 0.0
								CHANNELS 6 Xposition Yposition Zposition Zrotation Xrotation Yrotation 
								End Site
								{
									OFFSET 0.0 0.0 0.0
								}
							}
						}
					}
				}
				JOINT Shoulder_R
				{
					OFFSET 12.9945 -0.242716 -4.98039
					CHANNELS 6 Xposition Yposition Zposition Zrotation Xrotation Yrotation 
					JOINT UpperArm_R
					{
						OFFSET -5.34813 0.0 0.0
						CHANNELS 6 Xposition Yposition Zposition Zrotation Xrotation Yrotation 
						JOINT LowerArm_R
						{
							OFFSET -24.3289 0.000322201 0.0
							CHANNELS 6 Xposition Yposition Zposition Zrotation Xrotation Yrotation 
							JOINT Hand_R
							{
								OFFSET -22.2915 -0.000108084 0.0
								CHANNELS 6 Xposition Yposition Zposition Zrotation Xrotation Yrotation 
								End Site
								{
									OFFSET 0.0 0.0 0.0
								}
							}
						}
					}
				}
			}
		}
		JOINT UpperLeg_L
		{
			OFFSET -2.19248 -6.46944 0.0
			CHANNELS 6 Xposition Yposition Zposition Zrotation Xrotation Yrotation 
			JOINT LowerLeg_L
			{
				OFFSET 39.0811 0.0 -1.23785e-05
				CHANNELS 6 Xposition Yposition Zposition Zrotation Xrotation Yrotation 
				JOINT Foot_L
				{
					OFFSET 40.9854 0.0 -1.26872e-05
					CHANNELS 6 Xposition Yposition Zposition Zrotation Xrotation Yrotation 
					JOINT Toes_L
					{
						OFFSET 11.7543 0.0 0.0
						CHANNELS 6 Xposition Yposition Zposition Zrotation Xrotation Yrotation 
						End Site
						{
							OFFSET 0.0 0.0 0.0
						}
					}
				}
			}
		}
		JOINT UpperLeg_R
		{
			OFFSET -2.19251 6.46944 0.0
			CHANNELS 6 Xposition Yposition Zposition Zrotation Xrotation Yrotation 
			JOINT LowerLeg_R
			{
				OFFSET -39.0811 -0.00228153 -0.0401928
				CHANNELS 6 Xposition Yposition Zposition Zrotation Xrotation Yrotation 
				JOINT Foot_R
				{
					OFFSET -40.9854 0.0 0.0
					CHANNELS 6 Xposition Yposition Zposition Zrotation Xrotation Yrotation 
					JOINT Toes_R
					{
						OFFSET -11.7543 0.0 0.0
						CHANNELS 6 Xposition Yposition Zposition Zrotation Xrotation Yrotation 
						End Site
						{
							OFFSET 0.0 0.0 0.0
						}
					}
				}
			}
		}
	}
}
MOTION
Frames:	9
Frame Time:	0.0333333
0.000000 0.000000 0.000000 0.000000 0.000000 -0.000000 -1.304290 91.521400 -68.312800 86.558600 -2.593080 5.826260 15.735700 0.000005 -0.000001 103.416000 84.090300 -101.536000 8.984550 -0.406207 -0.000000 3.693220 2.671980 3.669670 16.377300 -0.000001 -0.000001 4.199090 -1.816790 3.392430 6.456720 -0.000001 -0.000000 7.974010 -2.446460 -4.083790 12.994200 -0.242716 4.980390 -89.723400 -0.787111 -70.640600 5.348090 -0.000007 -0.000001 -76.307200 28.117400 -4.842300 24.328600 0.000019 0.000005 4.350230 17.228800 -14.404000 22.291600 -0.000001 0.000005 2.870850 5.386380 -2.498120 12.994500 -0.242716 -4.980390 87.902000 6.885970 -73.010100 -5.348130 -0.000001 -0.000004 -58.489200 29.709400 -22.384000 -24.328900 0.000322 -0.000009 2.306170 7.055270 -18.164800 -22.291500 -0.000108 -0.000004 9.968150 5.456000 -4.855510 -2.192480 -6.469440 -0.000000 -173.495000 -8.623200 -18.009500 39.081100 -0.000007 -0.000012 0.075025 -0.029240 68.703100 40.985400 -0.000006 -0.000013 4.428960 -6.358500 -47.551100 11.754300 -0.000000 0.000003 -0.009259 -0.098028 -20.570000 -2.192510 6.469440 -0.000001 -175.349000 13.667300 173.230000 -39.081100 -0.002282 -0.040193 -0.044724 0.099351 25.803000 -40.985400 0.000008 0.000006 4.613480 -0.760344 -63.900300 -11.754300 -0.000006 -0.000006 -0.012312 -0.120170 -21.472400
0.000000 0.000000 0.000000 0.000000 0.000000 -0.000000 -1.170610 91.869700 -65.288400 87.244300 -4.467360 5.712150 15.735700 0.000005 -0.000001 108.246000 83.835500 -106.672000 8.984550 -0.406207 -0.000000 3.900030 3.801580 3.015890 16.377300 -0.000001 -0.000001 4.148660 -1.396580 3.397790 6.456720 -0.000001 -0.000000 7.731230 -2.655600 -4.404390 12.994200 -0.242716 4.980390 -89.644800 -0.972898 -69.938800 5.348090 -0.000007 -0.000001 -76.975100 25.753400 -1.235950 24.328600 0.000019 0.000005 3.926610 16.573400 -13.529900 22.291600 -0.000001 0.000005 2.723960 5.378920 -2.264330 12.994500 -0.242716 -4.980390 88.012900 6.778990 -73.620700 -5.348130 -0.000001 -0.000004 -56.573400 28.697300 -26.335800 -24.328900 0.000322 -0.000009 2.223650 5.787900 -21.072000 -22.291500 -0.000108 -0.000004 9.845530 5.465430 -5.200450 -2.192480 -6.469440 -0.000000 -174.966000 -9.832430 -20.320700 39.081100 -0.000007 -0.000012 0.056219 -0.028227 63.335200 40.985400 -0.000006 -0.000013 4.786020 -5.741570 -50.831200 11.754300 -0.000000 0.000003 -0.007758 -0.086056 -20.080800 -2.192510 6.469440 -0.000001 -176.761000 13.025700 176.473000 -39.081100 -0.002282 -0.040193 -0.055171 0.133441 23.667300 -40.985400 0.000008 0.000006 4.205350 0.667039 -64.930800 -11.754300 -0.000006 -0.000006 -0.012549 -0.121789 -21.538700
0.000000 0.000000 0.000000 0.000000 0.000000 -0.000000 -1.062170 92.050200 -62.323000 87.800200 -6.025410 5.638120 15.735700 0.000005 -0.000001 111.347000 83.594800 -110.048000 8.984550 -0.406207 -0.000000 4.125570 4.614790 2.429100 16.377300 -0.000001 -0.000001 3.930990 -1.045020 3.310150 6.456720 -0.000001 -0.000000 7.447210 -2.804070 -4.469510 12.994200 -0.242716 4.980390 -89.693700 -0.810009 -69.285200 5.348090 -0.000007 -0.000001 -76.839900 23.655800 2.029700 24.328600 0.000019 0.000005 3.686030 16.018700 -13.140400 22.291600 -0.000001 0.000005 3.613160 5.382870 -2.389310 12.994500 -0.242716 -4.980390 88.025700 6.979890 -74.163100 -5.348130 -0.000001 -0.000004 -54.275100 27.982500 -29.941600 -24.328900 0.000322 -0.000009 1.932170 4.275580 -24.365700 -22.291500 -0.000108 -0.000004 10.066600 5.465210 -5.191830 -2.192480 -6.469440 -0.000000 -175.912000 -10.476600 -21.352400 39.081100 -0.000007 -0.000012 0.043068 -0.030564 54.634200 40.985400 -0.000006 -0.000013 4.242480 -5.264380 -53.145700 11.754300 -0.000000 0.000003 -0.007287 -0.082122 -19.920200 -2.192510 6.469440 -0.000001 -178.080000 12.344100 179.563000 -39.081100 -0.002282 -0.040193 -0.072103 0.190038 21.647000 -40.985400 0.000008 0.000006 3.382650 1.683670 -65.906300 -11.754300 -0.000006 -0.000006 -0.012659 -0.122535 -21.569300
0.000000 0.000000 0.000000 0.000000 0.000000 -0.000000 -0.928454 92.053400 -59.432900 88.184000 -7.150490 5.394360 15.735700 0.000005 -0.000001 113.194000 83.432200 -112.100000 8.984550 -0.406207 -0.000000 4.273900 5.131780 1.995640 16.377300 -0.000001 -0.000001 3.662880 -0.814259 3.189060 6.456720 -0.000001 -0.000000 7.117580 -2.913930 -4.497780 12.994200 -0.242716 4.980390 -89.752100 -0.638633 -68.782700 5.348090 -0.000007 -0.000001 -76.579500 22.060900 4.534840 24.328600 0.000019 0.000005 3.499320 15.940400 -12.552500 22.291600 -0.000001 0.000005 4.870150 5.385110 -2.457100 12.994500 -0.242716 -4.980390 88.054200 7.126750 -74.685600 -5.348130 -0.000001 -0.000004 -51.970100 27.454200 -33.132200 -24.328900 0.000322 -0.000009 1.791290 3.425070 -27.646500 -22.291500 -0.000108 -0.000004 11.071500 5.456440 -4.872960 -2.192480 -6.469440 -0.000000 -176.422000 -10.556200 -20.956600 39.081100 -0.000007 -0.000012 0.026663 -0.029343 42.258200 40.985400 -0.000006 -0.000013 3.471960 -5.098300 -53.625500 11.754300 -0.000000 0.000003 -0.006807 -0.078006 -19.752200 -2.192510 6.469440 -0.000001 -179.272000 12.007900 -177.816000 -39.081100 -0.002282 -0.040193 -0.087969 0.250576 20.017800 -40.985400 0.000008 0.000006 2.772280 2.677700 -67.012300 -11.754300 -0.000006 -0.000006 -0.012214 -0.119497 -21.444800
0.000000 0.000000 0.000000 0.000000 0.000000 -0.000000 -0.793770 91.855600 -56.464700 88.153500 -7.811370 4.957830 15.735700 0.000005 -0.000001 114.521000 83.401500 -113.484000 8.984550 -0.406207 -0.000000 4.207930 5.436280 1.872470 16.377300 -0.000001 -0.000001 3.429040 -0.737745 3.062980 6.456720 -0.000001 -0.000000 6.946280 -3.042990 -4.533130 12.994200 -0.242716 4.980390 -89.684900 -0.803038 -68.575600 5.348090 -0.000007 -0.000001 -76.684500 20.492400 6.316180 24.328600 0.000019 0.000005 3.362940 16.855400 -11.456400 22.291600 -0.000001 0.000005 5.716380 5.377500 -2.220900 12.994500 -0.242716 -4.980390 88.106900 7.069050 -74.966700 -5.348130 -0.000001 -0.000004 -50.336700 26.931000 -35.551700 -24.328900 0.000322 -0.000009 2.179560 3.693260 -30.588400 -22.291500 -0.000108 -0.000004 12.335400 5.445990 -4.498320 -2.192480 -6.469440 -0.000000 -176.217000 -10.042900 -19.121000 39.081100 -0.000007 -0.000012 0.012397 -0.024691 26.659600 40.985400 -0.000006 -0.000013 2.410550 -4.377780 -50.855300 11.754300 -0.000000 0.000003 -0.006801 -0.077958 -19.750300 -2.192510 6.469440 -0.000001 179.874000 12.473400 -175.427000 -39.081100 -0.002282 -0.040193 -0.090657 0.277148 18.731900 -40.985400 0.000008 0.000006 2.821580 3.739740 -68.438000 -11.754300 -0.000006 -0.000006 -0.011317 -0.113231 -21.188200
0.000000 0.000000 0.000000 0.000000 0.000000 -0.000000 -0.664191 91.301200 -53.257400 88.016400 -8.077620 4.550880 15.735700 0.000005 -0.000001 115.448000 83.488900 -114.443000 8.984550 -0.406207 -0.000000 3.960220 5.553940 1.815650 16.377300 -0.000001 -0.000001 3.405780 -0.694955 3.059470 6.456720 -0.000001 -0.000000 6.827500 -3.082130 -4.583610 12.994200 -0.242716 4.980390 -89.531900 -1.191210 -68.544500 5.348090 -0.000007 -0.000001 -76.945700 18.778400 7.456470 24.328600 0.000019 0.000005 3.032830 17.627400 -9.924260 22.291600 -0.000001 0.000005 5.853950 5.350010 -1.377490 12.994500 -0.242716 -4.980390 88.141000 6.955930 -74.997200 -5.348130 -0.000001 -0.000004 -49.448300 26.525300 -36.886900 -24.328900 0.000322 -0.000009 2.673000 4.100110 -33.153000 -22.291500 -0.000108 -0.000004 13.006400 5.442560 -4.375590 -2.192480 -6.469440 -0.000000 -175.733000 -9.524310 -16.418100 39.081100 -0.000007 -0.000012 0.005177 -0.028509 10.294000 40.985400 -0.000006 -0.000013 0.768712 -1.568840 -46.987300 11.754300 -0.000000 0.000003 -0.006784 -0.077804 -19.744000 -2.192510 6.469440 -0.000001 178.935000 13.010400 -173.453000 -39.081100 -0.002282 -0.040193 -0.115211 0.347816 18.819000 -40.985400 0.000008 0.000006 2.199870 4.631150 -70.683500 -11.754300 -0.000006 -0.000006 -0.009751 -0.101767 -20.719100
0.000000 0.000000 0.000000 0.000000 0.000000 -0.000000 -0.451787 90.491900 -49.637900 87.797200 -8.628190 4.085490 15.735700 0.000005 -0.000001 117.287000 83.638500 -116.331000 8.984550 -0.406207 -0.000000 3.508780 5.790080 1.734410 16.377300 -0.000001 -0.000001 3.348960 -0.630384 3.023320 6.456720 -0.000001 -0.000000 7.009750 -3.068560 -4.403310 12.994200 -0.242716 4.980390 -89.340300 -1.668590 -68.424600 5.348090 -0.000007 -0.000001 -77.148300 17.188100 8.034040 24.328600 0.000019 0.000005 2.650920 18.264400 -8.404190 22.291600 -0.000001 0.000005 5.519480 5.313080 -0.296984 12.994500 -0.242716 -4.980390 88.143900 6.878890 -74.860300 -5.348130 -0.000001 -0.000004 -49.152400 26.523800 -37.410400 -24.328900 0.000322 -0.000009 2.909480 4.148390 -35.101100 -22.291500 -0.000108 -0.000004 13.217200 5.440660 -4.308860 -2.192480 -6.469440 -0.000000 -176.162000 -12.228300 -17.200100 39.081100 -0.000007 -0.000012 0.000636 -0.009923 3.671490 40.985400 -0.000006 -0.000013 -2.052070 2.271730 -50.639800 11.754300 -0.000000 0.000003 -0.006465 -0.075012 -19.630000 -2.192510 6.469440 -0.000001 178.494000 12.175000 -171.657000 -39.081100 -0.002282 -0.040193 -0.081591 0.239119 19.550500 -40.985400 0.000008 0.000006 2.923010 3.936750 -73.629500 -11.754300 -0.000006 -0.000006 -0.007851 -0.086810 -20.107900
0.000000 0.000000 0.000000 0.000000 0.000000 -0.000000 -0.032664 89.646200 -45.726000 87.835200 -9.469770 3.524230 15.735700 0.000005 -0.000001 119.862000 83.818100 -119.048000 8.984550 -0.406207 -0.000000 2.928140 6.115610 1.469480 16.377300 -0.000001 -0.000001 3.315520 -0.580148 3.008630 6.456720 -0.000001 -0.000000 7.140880 -2.963710 -4.288120 12.994200 -0.242716 4.980390 -89.323700 -1.691340 -68.200400 5.348090 -0.000007 -0.000001 -76.932300 16.071000 8.065760 24.328600 0.000019 0.000005 2.340410 18.837400 -7.214180 22.291600 -0.000001 0.000005 5.382480 5.287390 0.422869 12.994500 -0.242716 -4.980390 88.116200 6.926310 -74.744000 -5.348130 -0.000001 -0.000004 -49.429900 26.772400 -37.085900 -24.328900 0.000322 -0.000009 2.810560 3.841920 -36.241100 -22.291500 -0.000108 -0.000004 13.326500 5.443750 -4.417430 -2.192480 -6.469440 -0.000000 -176.794000 -13.588500 -18.473100 39.081100 -0.000007 -0.000012 -0.000214 0.005859 2.085960 40.985400 -0.000006 -0.000013 -1.986960 2.000060 -54.183400 11.754300 -0.000000 0.000003 -0.006344 -0.073933 -19.586000 -2.192510 6.469440 -0.000001 178.021000 10.471800 -170.393000 -39.081100 -0.002282 -0.040193 0.020988 -0.046204 20.926900 -40.985400 0.000008 0.000006 4.368290 2.200970 -75.862600 -11.754300 -0.000006 -0.000006 -0.007638 -0.085049 -20.036000
0.000000 0.000000 0.000000 0.000000 0.000000 -0.000000 0.612531 88.993400 -41.458200 88.919500 -9.867190 3.673770 15.735700 0.000005 -0.000001 120.106000 83.869300 -119.777000 8.984550 -0.406207 -0.000000 2.838320 6.130280 0.505196 16.377300 -0.000001 -0.000001 3.322180 -0.598604 3.223370 6.456720 -0.000001 -0.000000 7.038290 -2.850410 -4.343480 12.994200 -0.242716 4.980390 -89.524900 -1.186470 -68.175000 5.348090 -0.000007 -0.000001 -76.432100 15.686400 7.383940 24.328600 0.000019 0.000005 2.127980 19.018700 -6.504770 22.291600 -0.000001 0.000005 5.686920 5.273800 0.795099 12.994500 -0.242716 -4.980390 87.986600 7.406070 -74.744900 -5.348130 -0.000001 -0.000004 -49.792600 27.219700 -35.877000 -24.328900 0.000322 -0.000009 2.244340 3.040540 -36.472400 -22.291500 -0.000108 -0.000004 13.524800 5.452180 -4.717040 -2.192480 -6.469440 -0.000000 -178.160000 -12.604500 -22.787900 39.081100 -0.000007 -0.000012 0.024307 -0.121026 11.356400 40.985400 -0.000006 -0.000013 1.203170 -2.788400 -53.762200 11.754300 -0.000000 0.000003 -0.006208 -0.072721 -19.536600 -2.192510 6.469440 -0.000001 175.660000 9.451500 -169.336000 -39.081100 -0.002282 -0.040193 0.018782 -0.035251 23.690400 -40.985400 0.000008 0.000006 3.958520 1.992250 -75.324100 -11.754300 -0.000006 -0.000006 -0.377531 -0.498262 -21.859900
